# xmcd
#
# Track frame offsets:
#	150
#	14540
#	33026
#	48656
#	68796
#	83926
#	100540
#	119870
#	135435
#	152543
#	170355
#	191255
#	213889
#	233453
#
# Disc length: 3364 seconds
# Revision: 0
# Processed by: cddbd v1.5.2PL0 Copyright (c) Steve Scherf et al.
# Submitted via: dBpowerAMP V12.0
#
DISCID=aa0d220e
DTITLE=Travis Collins - No Boundaries
DYEAR=2007
DGENRE=Country
TTITLE0=Yeah She Does
TTITLE1=Empty House
TTITLE2=You Drive Me Crazy
TTITLE3=Don't Win Enough
TTITLE4=A Friend to Me
TTITLE5=Everything About You
TTITLE6=Heart of Blues
TTITLE7=Rip It Up
TTITLE8=Brand New Day
TTITLE9=Didn't We Love
TTITLE10=Walls Come Down
TTITLE11=What Goes Around
TTITLE12=When It Rains [*]
TTITLE13=Just Enough Rope [*]
EXTD=
EXTT0=
EXTT1=
EXTT2=
EXTT3=
EXTT4=
EXTT5=
EXTT6=
EXTT7=
EXTT8=
EXTT9=
EXTT10=
EXTT11=
EXTT12=
EXTT13=
PLAYORDER=
